<svg width="100" height="30" fill="none" xmlns="http://www.w3.org/2000/svg"><path d="M1.979 20H.348L4.012 9.818h1.775L9.45 20h-1.63l-2.88-8.332h-.079L1.98 20zm.273-3.987h5.29v1.292h-5.29v-1.292zM10.802 20v-7.636h1.487v3.201h.715l2.521-3.201h1.84l-2.959 3.713L17.4 20h-1.844l-2.302-3.053h-.964V20h-1.487zm7.752 0v-7.636h1.487v3.201h.715l2.521-3.201h1.84l-2.959 3.713L25.151 20h-1.844l-2.302-3.053h-.964V20h-1.487zm9.974.169a3.12 3.12 0 0 1-1.312-.268 2.211 2.211 0 0 1-.93-.79c-.225-.346-.338-.768-.338-1.269 0-.43.083-.785.249-1.064.165-.278.389-.498.67-.66.282-.163.597-.286.945-.369a9.387 9.387 0 0 1 1.064-.189l1.114-.129c.285-.036.492-.094.621-.174.13-.08.194-.209.194-.388v-.034c0-.435-.122-.771-.368-1.01-.242-.238-.603-.358-1.084-.358-.5 0-.894.111-1.183.333-.285.22-.482.463-.591.731l-1.397-.318c.165-.464.407-.838.726-1.123a2.942 2.942 0 0 1 1.108-.627 4.327 4.327 0 0 1 1.318-.199c.305 0 .628.037.97.11.344.07.665.198.964.387.301.19.548.46.74.81.193.349.289.801.289 1.358V20h-1.452v-1.044h-.06c-.096.192-.24.381-.432.567-.192.185-.44.34-.741.462-.302.123-.663.184-1.084.184zm.323-1.193c.411 0 .763-.081 1.054-.244.295-.162.52-.374.671-.636a1.65 1.65 0 0 0 .234-.85v-.985c-.053.053-.156.103-.308.15a4.81 4.81 0 0 1-.512.114c-.192.03-.38.058-.562.084l-.457.06a3.688 3.688 0 0 0-.79.184c-.236.086-.425.21-.568.373-.139.159-.208.371-.208.636 0 .368.136.647.407.835.272.186.618.279 1.04.279zm6.092 3.888c-.222 0-.424-.019-.607-.055a1.912 1.912 0 0 1-.407-.11l.358-1.218c.271.073.513.105.725.095.213-.01.4-.09.562-.239.166-.149.312-.392.438-.73l.184-.508-2.794-7.735h1.59l1.934 5.926h.08l1.934-5.926h1.596l-3.147 8.655a3.452 3.452 0 0 1-.557 1.01 2.16 2.16 0 0 1-.805.626c-.312.139-.673.209-1.084.209zm12.165-7.324v1.288h-4.136v-1.287h4.136zm-3.718-3.176V20h-1.457v-7.636h1.457zm4.757 0V20h-1.451v-7.636h1.451zm1.042 1.282v-1.282h6.443v1.282h-2.49V20H51.69v-6.354h-2.501z" fill="#fff"/><rect x="70" width="30" height="30" rx="6" fill="#313131"/><path fill-rule="evenodd" clip-rule="evenodd" d="M86.43 16.968a3.751 3.751 0 1 0-2.86 0 8.614 8.614 0 0 0-3.762 1.612l1.382 1.839a6.317 6.317 0 0 1 3.81-1.27c1.431 0 2.749.473 3.81 1.27l1.381-1.839a8.613 8.613 0 0 0-3.76-1.612z" fill="#fff"/></svg>